#!OML:ASF F:\twosubjects\two\Thursday\Session 1\Rory.ASF
:FULLY-SPECIFIED
:DEGREES
378
root 8.36983 18.5497 -1.16201 5.77273 9.53524 2.68106
lowerback -3.37201 1.42443 -2.11825
upperback 0.182057 2.00655 -1.02073
thorax 2.04055 0.984239 0.24064
lowerneck -9.52309 0.671798 2.50654
upperneck 28.3833 -0.692053 4.36225
head 10.6959 0.501539 1.06247
rclavicle 8.20987e-015 1.96766e-015
rhumerus 28.7738 10.0008 -87.4544
rradius 50.1547
rwrist -5.46794
rhand -54.8351 20.8777
rfingers 7.12502
rthumb -27.2224 -7.17799
lclavicle 8.20987e-015 1.96766e-015
lhumerus 23.3087 -7.21145 81.665
lradius 50.1986
lwrist 7.77184
lhand -29.2195 61.7462
lfingers 7.12502
lthumb -2.56368 1348.29
rfemur -10.3983 5.65629 16.1887
rtibia 23.6926
rfoot -17.3826 -23.5844
rtoes -1.06718
lfemur -6.05325 -5.19565 -18.8906
ltibia 16.4451
lfoot -15.3109 -1.39066
ltoes -0.567738
379
root 8.35088 18.5465 -1.14093 5.36552 9.85604 2.59412
lowerback -3.04543 1.31883 -2.21648
upperback 0.233649 1.85981 -0.986182
thorax 1.90885 0.910819 0.31595
lowerneck -9.33201 0.676164 2.5511
upperneck 28.3104 -0.698659 4.42012
head 10.6314 0.506229 1.07244
rclavicle 2.17498e-014 -8.3738e-015
rhumerus 28.5386 10.023 -87.6066
rradius 50.3207
rwrist -5.44432
rhand -55.0421 19.8951
rfingers 7.12502
rthumb -27.4204 -8.12942
lclavicle 2.17498e-014 -8.3738e-015
lhumerus 22.9075 -7.40042 81.569
lradius 50.5505
lwrist 8.51036
lhand -30.3704 62.9093
lfingers 7.12502
lthumb -3.67511 1347.14
rfemur -9.82665 6.05765 16.481
rtibia 23.7649
rfoot -17.757 -24.1881
rtoes -0.0878233
lfemur -5.5184 -4.90695 -18.6913
ltibia 16.3302
lfoot -15.3527 -2.04578
ltoes -0.130046
380
root 8.36171 18.5491 -1.13981 5.56426 9.78851 2.45594
lowerback -3.15946 1.36888 -1.81486
upperback 0.124087 1.91374 -1.03484
thorax 1.87381 0.942879 0.0455083
lowerneck -9.38443 0.673898 2.50081
upperneck 28.2894 -0.702771 4.45564
head 10.6339 0.503292 1.09339
rclavicle 3.20183e-014 -2.45748e-014
rhumerus 28.4748 9.94865 -87.7443
rradius 50.3394
rwrist -5.48084
rhand -55.0115 21.7997
rfingers 7.12502
rthumb -27.3912 -6.22947
lclavicle 3.20183e-014 -2.45748e-014
lhumerus 22.6329 -7.32127 81.6622
lradius 50.8514
lwrist 8.14319
lhand -30.0343 63.0738
lfingers 7.12502
lthumb -3.35057 1346.97
rfemur -10.185 5.75145 16.5265
rtibia 23.8422
rfoot -17.5924 -23.9099
rtoes -0.75036
lfemur -5.68979 -5.08324 -18.5742
ltibia 16.1944
lfoot -15.2349 -1.77214
ltoes 0.389494
381
root 8.36279 18.5462 -1.1301 5.63484 9.72435 2.40891
lowerback -3.27247 1.45989 -1.68924
upperback 0.135906 2.03367 -1.04358
thorax 1.95237 1.00338 -0.0246833
lowerneck -9.70461 0.694785 2.65381
upperneck 28.4114 -0.687261 4.32041
head 10.7433 0.517665 1.02436
rclavicle 7.16091e-015 1.66482e-015
rhumerus 28.5446 9.78904 -87.738
rradius 50.3282
rwrist -5.39687
rhand -54.8245 23.2056
rfingers 7.12502
rthumb -27.2123 -4.85168
lclavicle 7.16091e-015 1.66482e-015
lhumerus 22.6783 -7.17901 81.8511
lradius 50.8958
lwrist 7.13924
lhand -28.7967 62.5647
lfingers 7.12502
lthumb -2.15538 1347.47
rfemur -10.3162 5.7021 16.561
rtibia 23.9491
rfoot -17.6831 -23.7576
rtoes -1.80225
lfemur -5.6416 -5.13234 -18.5087
ltibia 15.9873
lfoot -15.0604 -1.70845
ltoes 0.840142
382
root 8.363 18.5475 -1.1199 5.67228 9.76101 2.53478
lowerback -3.24528 1.50064 -1.74855
upperback 0.11431 2.09058 -1.11024
thorax 1.91473 1.03191 -0.0582978
lowerneck -9.93089 0.701904 2.74414
upperneck 28.5332 -0.709328 4.31079
head 10.8355 0.521938 1.00631
rclavicle 9.60689e-015 -6.70898e-015
rhumerus 28.5447 9.75804 -87.5998
rradius 50.4624
rwrist -5.30473
rhand -54.933 22.8125
rfingers 7.12502
rthumb -27.3161 -5.2285
lclavicle 9.60689e-015 -6.70898e-015
lhumerus 22.6874 -7.26646 81.8331
lradius 50.8479
lwrist 6.78115
lhand -28.199 62.1312
lfingers 7.12502
lthumb -1.57814 1347.89
rfemur -10.3485 5.49216 16.4258
rtibia 24.0603
rfoot -17.8853 -23.4652
rtoes -1.21699
lfemur -5.54172 -5.58487 -18.6495
ltibia 15.8301
lfoot -14.9887 -1.44503
ltoes 1.38608
383
root 8.36495 18.5477 -1.10789 5.67047 9.90901 2.71805
lowerback -3.22626 1.47227 -1.87082
upperback 0.133473 2.05838 -1.1601
thorax 1.92168 1.01477 -0.0428383
lowerneck -10.0462 0.68961 2.5191
upperneck 28.488 -0.748861 4.54695
head 10.8425 0.507996 1.12582
rclavicle -5.89521e-015 7.1314e-015
rhumerus 28.5934 9.8461 -87.3855
rradius 50.4945
rwrist -5.2079
rhand -55.1517 23.0262
rfingers 7.12502
rthumb -27.5252 -4.98172
lclavicle -5.89521e-015 7.1314e-015
lhumerus 22.5986 -7.38965 81.8283
lradius 50.78
lwrist 6.71394
lhand -28.6777 62.2048
lfingers 7.12502
lthumb -2.04045 1347.83
rfemur -10.2887 4.99443 16.2353
rtibia 24.148
rfoot -17.9226 -23.1043
rtoes -0.776063
lfemur -5.39086 -6.22277 -18.874
ltibia 15.7145
lfoot -15.0206 -1.03861
ltoes 1.67228
384
root 8.36446 18.545 -1.09803 5.68499 10.0084 2.76598
lowerback -3.30358 1.45557 -1.9474
upperback 0.161901 2.04128 -1.1304
thorax 1.99073 1.00459 0.0322424
lowerneck -9.91351 0.655572 2.24041
upperneck 28.2619 -0.784026 4.77023
head 10.7313 0.481663 1.24531
rclavicle -2.17894e-014 2.78299e-015
rhumerus 28.6254 9.93465 -87.1829
rradius 50.5054
rwrist -5.30135
rhand -55.2534 23.489
rfingers 7.12502
rthumb -27.6225 -4.50337
lclavicle -2.17894e-014 2.78299e-015
lhumerus 22.5645 -7.46611 81.8232
lradius 50.6722
lwrist 6.57395
lhand -29.3416 62.7994
lfingers 7.12502
lthumb -2.6816 1347.24
rfemur -10.2746 4.94168 16.1908
rtibia 24.222
rfoot -17.9726 -23.204
rtoes -1.09244
lfemur -5.34535 -5.91212 -18.8905
ltibia 15.6306
lfoot -14.9439 -1.39348
ltoes 1.6437
